{"title":"The Insider*1999*[DVD5][PAL][ENG, POL, sub. ROM, TUR]","uid":5927148,"size":4676091904,"categoryP":"video","categoryS":"movies_dvdr","magnet":"?xt=urn:btih:4835082d14550b153fa89a08ec5f77b5ef7776cd&amp;dn=The+Insider%2A1999%2A%5BDVD5%5D%5BPAL%5D%5BENG%2C+POL%2C+sub.+ROM%2C+TUR%5D&amp;tr=udp%3A%2F%2Ftracker.openbittorrent.com%3A80&amp;tr=udp%3A%2F%2Fopen.demonii.com%3A1337&amp;tr=udp%3A%2F%2Ftracker.coppersurfer.tk%3A6969&amp;tr=udp%3A%2F%2Fexodus.desync.com%3A6969","seeders":0,"leechers":1,"uploader":"albedo040","files":1,"time":1288642049,"description":"The Insider*1999*[DVD5][PAL][ENG, POL, sub. ROM, TUR]\n\nGeneral information:\nCountry: USA\nRelease: 28 October 1999\nGenre: Biography, Drama, Thriller \nDirector: Michael Mann\nScreenplay: Eric Roth, Michael Mann, Marie Brenner (article),\nOriginal Music: Pieter Bourke, Lisa Gerrard\nCinematography by: Dante Spinotti\nDuration: 2h 29mn\nLanguage: English, Polish\nSubtitles: English, Polish, Romanian, Turkish \nRating: 7.6/10 - 14815 votes\n\nCast:\nAl Pacino  ...  Lowell Bergman  \nRussell Crowe  ...  Jeffrey Wigand  \nChristopher Plummer  ...  Mike Wallace  \nDiane Venora  ...  Liane Wigand  \nPhilip Baker Hall  ...  Don Hewitt  \nLindsay Crouse  ...  Sharon Tiller  \nDebi Mazar  ...  Debbie De Luca  \nStephen Tobolowsky  ...  Eric Kluster  \nColm Feore  ...  Richard Scruggs  \nBruce McGill  ...  Ron Motley  \nGina Gershon  ...  Helen Caperelli  \nMichael Gambon  ...  Thomas Sandefur  \nRip Torn  ...  John Scanlon  \nLynne Thigpen  ...  Mrs. Williams  \nHallie Kate Eisenberg  ...  Barbara Wigand  \n\nPlot:\nA research chemist comes under personal and professional attack when he decides to appear in a &quot;60 Minutes&quot; expose on Big Tobacco. \n\nSpecifications:\nGeneral\nFormat                           : MPEG-PS\nOverall bit rate                 : 4 082 Kbps\n\nVideo\nFormat                           : MPEG Video\nFormat version                   : Version 2\nFormat profile                   : Main@Main\nFormat settings, BVOP            : Yes\nFormat settings, Matrix          : Default\nBit rate mode                    : Variable\nBit rate                         : 3 361 Kbps\nNominal bit rate                 : 9 800 Kbps\nWidth                            : 720 pixels\nHeight                           : 576 pixels\nDisplay aspect ratio             : 16:9\nFrame rate                       : 25.000 fps\nStandard                         : PAL\n\nAudio 1\nFormat                           : AC-3\nFormat/Info                      : Audio Coding 3\nMode extension                   : CM (complete main)\nBit rate mode                    : Constant\nBit rate                         : 448 Kbps\nChannel(s)                       : 6 channels\nChannel positions                : Front: L C R, Side: L R, LFE\nSampling rate                    : 48.0 KHz\nVideo delay                      : -672ms\nStream size                      : 112 MiB (11%)\n\nAudio 2\nFormat                           : AC-3\nFormat/Info                      : Audio Coding 3\nMode extension                   : CM (complete main)\nBit rate mode                    : Constant\nBit rate                         : 192 Kbps\nChannel(s)                       : 2 channels\nChannel positions                : Front: L R\nSampling rate                    : 48.0 KHz\nVideo delay                      : -640ms\nStream size                      : 48.2 MiB (5%)\n\nText \nFormat                           : RLE\nFormat/Info                      : Run-length encoding\n","torrent":{"xt":"urn:btih:4835082d14550b153fa89a08ec5f77b5ef7776cd","amp;dn":"The+Insider%2A1999%2A%5BDVD5%5D%5BPAL%5D%5BENG%2C+POL%2C+sub.+ROM%2C+TUR%5D","amp;tr":["udp%3A%2F%2Ftracker.openbittorrent.com%3A80","udp%3A%2F%2Fopen.demonii.com%3A1337","udp%3A%2F%2Ftracker.coppersurfer.tk%3A6969","udp%3A%2F%2Fexodus.desync.com%3A6969"],"infoHash":"4835082d14550b153fa89a08ec5f77b5ef7776cd","infoHashBuffer":{"type":"Buffer","data":[72,53,8,45,20,85,11,21,63,168,154,8,236,95,119,181,239,119,118,205]},"announce":[],"urlList":[]}}